<svg xmlns="http://www.w3.org/2000/svg" viewBox="0 0 1792 344" role="img" aria-labelledby="title desc">
  <title id="title">OpenWrt Builder</title>
  <desc id="desc">Transparent vector banner for the OpenWrt Builder project.</desc>
  <style>
    .icon {
      fill: url(#icon-gradient);
    }

    .mark {
      fill: none;
      stroke: #ffffff;
      stroke-linecap: round;
      stroke-linejoin: round;
    }

    .node {
      fill: #586bf2;
      stroke: #ffffff;
      stroke-width: 8;
    }

    .dot {
      fill: #ffffff;
    }

    .title-shape {
      fill: url(#title-gradient);
    }
  </style>

  <defs>
    <linearGradient id="icon-gradient" x1="0" y1="0" x2="1" y2="1">
      <stop offset="0" stop-color="#8fa0ff"/>
      <stop offset="0.54" stop-color="#5d6ff4"/>
      <stop offset="1" stop-color="#3d55f3"/>
    </linearGradient>
    <linearGradient id="title-gradient" x1="360" y1="118" x2="1718" y2="238" gradientUnits="userSpaceOnUse">
      <stop offset="0" stop-color="#86a7ff"/>
      <stop offset="0.42" stop-color="#5f73f4"/>
      <stop offset="1" stop-color="#4357e8"/>
    </linearGradient>
  </defs>

  <g transform="translate(40 47) scale(1.94117647)">
    <rect class="icon" width="136" height="136" rx="24"/>
    <path class="mark" d="M25 74C30 49 47 34 68 34C89 34 106 49 111 74" stroke-width="13"/>
    <path class="mark" d="M42 83C46 69 56 61 68 61C80 61 90 69 94 83" stroke-width="11"/>
    <path class="mark" d="M68 79v28" stroke-width="9"/>
    <path class="mark" d="M35 107h66" stroke-width="9"/>
    <circle class="node" cx="35" cy="107" r="10"/>
    <circle class="node" cx="68" cy="107" r="10"/>
    <circle class="node" cx="101" cy="107" r="10"/>
    <circle class="dot" cx="68" cy="75" r="9"/>
  </g>

  <path class="title-shape" d="M365.24 179.87 Q365.24 166.78 369.86 156.23 Q374.48 145.68 382.56 138.29 Q390.65 130.90 401.73 126.89 Q412.82 122.89 425.76 122.89 Q438.69 122.89 449.78 126.89 Q460.87 130.90 469.03 138.29 Q477.19 145.68 481.81 156.23 Q486.43 166.78 486.43 179.87 Q486.43 192.96 481.81 203.74 Q477.19 214.52 469.03 222.14 Q460.87 229.76 449.78 233.92 Q438.69 238.08 425.76 238.08 Q412.82 238.08 401.73 233.92 Q390.65 229.76 382.56 222.14 Q374.48 214.52 369.86 203.74 Q365.24 192.96 365.24 179.87 Z M404.20 179.87 Q404.20 185.26 405.82 189.72 Q407.43 194.19 410.28 197.42 Q413.13 200.66 417.13 202.43 Q421.14 204.20 425.76 204.20 Q430.38 204.20 434.31 202.43 Q438.23 200.66 441.16 197.42 Q444.08 194.19 445.70 189.72 Q447.32 185.26 447.32 179.87 Q447.32 174.63 445.70 170.24 Q444.08 165.85 441.16 162.85 Q438.23 159.85 434.31 158.15 Q430.38 156.46 425.76 156.46 Q421.14 156.46 417.13 158.15 Q413.13 159.85 410.28 162.85 Q407.43 165.85 405.82 170.24 Q404.20 174.63 404.20 179.87 Z M556.81 237.16 Q550.81 237.16 544.95 234.92 Q539.10 232.69 535.41 228.69 L535.10 228.69 L535.10 271.96 L499.83 271.96 L499.83 154 L533.25 154 L533.25 162.16 L533.56 162.16 Q538.02 157.08 544.34 154.46 Q550.65 151.84 556.66 151.84 Q565.74 151.84 572.67 155.54 Q579.60 159.23 584.22 165.24 Q588.84 171.24 591.23 178.79 Q593.62 186.34 593.62 194.19 Q593.62 202.20 591.23 209.90 Q588.84 217.60 584.22 223.68 Q579.60 229.76 572.75 233.46 Q565.90 237.16 556.81 237.16 Z M560.66 194.19 Q560.66 188.80 557.27 184.80 Q553.89 180.79 547.42 180.79 Q541.10 180.79 537.33 184.80 Q533.56 188.80 533.56 194.19 Q533.56 199.89 537.33 203.89 Q541.10 207.90 547.42 207.90 Q553.89 207.90 557.27 203.97 Q560.66 200.04 560.66 194.19 Z M660.61 183.72 Q660.61 179.41 657.45 176.63 Q654.29 173.86 648.90 173.86 Q643.05 173.86 639.82 177.10 Q636.58 180.33 636.12 183.72 Z M691.25 195.27 Q691.25 197.27 691.18 199.35 Q691.10 201.43 690.95 202.81 L636.43 202.81 Q636.58 204.97 637.89 206.66 Q639.20 208.36 641.13 209.59 Q643.05 210.82 645.44 211.44 Q647.83 212.05 650.29 212.05 Q655.22 212.05 658.53 210.28 Q661.84 208.51 663.53 206.36 L688.79 219.14 Q683.40 227.92 673.16 233 Q662.92 238.08 649.37 238.08 Q640.59 238.08 632.27 235.31 Q623.96 232.54 617.57 227.07 Q611.17 221.60 607.32 213.44 Q603.47 205.28 603.47 194.50 Q603.47 184.49 607.02 176.40 Q610.56 168.32 616.64 162.70 Q622.72 157.08 630.96 154 Q639.20 150.92 648.60 150.92 Q658.14 150.92 666 154.23 Q673.85 157.54 679.47 163.47 Q685.09 169.40 688.17 177.56 Q691.25 185.72 691.25 195.27 Z M703.73 154 L738.38 154 L738.38 162.93 L738.69 162.93 Q741.77 158.46 747.85 155.15 Q753.93 151.84 761.79 151.84 Q770.26 151.84 775.88 154.92 Q781.50 158 784.81 162.85 Q788.12 167.70 789.43 173.71 Q790.74 179.71 790.74 185.72 L790.74 235 L755.01 235 L755.01 191.88 Q755.01 185.72 753.09 183.26 Q751.16 180.79 747.31 180.79 Q743.77 180.79 741.54 183.64 Q739.30 186.49 739.30 191.88 L739.30 235 L703.73 235 Z M864.81 235 L827.85 235 L798.13 125.97 L836.94 125.97 L848.64 187.26 L849.26 187.26 L861.89 125.97 L900.23 125.97 L913.94 187.26 L914.55 187.26 L926.41 125.97 L963.99 125.97 L933.65 235 L896.69 235 L881.29 173.40 L880.67 173.40 Z M968.45 154 L1002.64 154 L1002.64 163.24 L1002.95 163.24 Q1005.57 158.31 1010.73 155.07 Q1015.89 151.84 1022.82 151.84 Q1026.97 151.84 1029.59 152.61 L1026.82 182.79 Q1025.13 182.33 1023.05 182.10 Q1020.97 181.87 1019.27 181.87 Q1012.34 181.87 1008.19 185.87 Q1004.03 189.88 1004.03 195.73 L1004.03 235 L968.45 235 Z M1070.40 237.16 Q1054.08 237.16 1046.22 230.15 Q1038.37 223.14 1038.37 208.36 L1038.37 179.41 L1026.97 179.41 L1026.97 154 L1038.22 154 L1038.22 135.82 L1072.71 135.82 L1072.71 154 L1090.27 154 L1090.27 179.41 L1072.71 179.41 L1072.71 200.97 Q1072.71 206.82 1075.25 208.90 Q1077.79 210.98 1082.26 210.98 Q1083.95 210.98 1085.80 210.67 Q1087.65 210.36 1088.73 210.05 L1088.73 234.38 Q1085.96 235.62 1080.95 236.39 Q1075.95 237.16 1070.40 237.16 Z M1174.66 154.46 L1174.66 167.86 L1184.52 167.86 Q1188.37 167.86 1190.83 166.09 Q1193.29 164.31 1193.29 160.62 Q1193.29 157.54 1190.68 156 Q1188.06 154.46 1183.75 154.46 Z M1174.66 191.42 L1174.66 206.20 L1185.59 206.20 Q1189.91 206.20 1192.60 204.28 Q1195.30 202.35 1195.30 198.66 Q1195.30 196.50 1194.14 195.11 Q1192.99 193.73 1191.29 192.88 Q1189.60 192.03 1187.67 191.73 Q1185.75 191.42 1184.05 191.42 Z M1211.77 178.33 Q1215.62 179.25 1219.32 181.33 Q1223.02 183.41 1225.94 186.57 Q1228.87 189.72 1230.56 193.88 Q1232.26 198.04 1232.26 203.12 Q1232.26 212.05 1228.64 218.14 Q1225.02 224.22 1219.09 227.99 Q1213.16 231.77 1205.54 233.38 Q1197.91 235 1189.91 235 L1140.47 235 L1140.47 125.97 L1185.29 125.97 Q1191.91 125.97 1199.38 126.97 Q1206.85 127.97 1213.16 130.97 Q1219.47 133.98 1223.63 139.75 Q1227.79 145.53 1227.79 154.92 Q1227.79 163.70 1223.40 169.40 Q1219.01 175.09 1211.77 177.87 Z M1330.97 235 L1296.32 235 L1296.32 226.07 L1296.01 226.07 Q1292.93 230.53 1286.85 233.85 Q1280.77 237.16 1272.91 237.16 Q1264.29 237.16 1258.74 234.15 Q1253.20 231.15 1249.89 226.30 Q1246.58 221.45 1245.27 215.37 Q1243.96 209.28 1243.96 203.28 L1243.96 154 L1279.69 154 L1279.69 196.81 Q1279.69 202.97 1281.61 205.43 Q1283.54 207.90 1287.39 207.90 Q1290.93 207.90 1293.16 205.05 Q1295.40 202.20 1295.40 196.81 L1295.40 154 L1330.97 154 Z M1347.45 154 L1383.02 154 L1383.02 235 L1347.45 235 Z M1346.83 130.59 Q1346.83 126.89 1348.30 123.58 Q1349.76 120.27 1352.30 117.81 Q1354.84 115.34 1358.23 113.88 Q1361.62 112.42 1365.47 112.42 Q1369.16 112.42 1372.40 113.88 Q1375.63 115.34 1378.17 117.81 Q1380.71 120.27 1382.18 123.58 Q1383.64 126.89 1383.64 130.59 Q1383.64 134.44 1382.18 137.75 Q1380.71 141.06 1378.17 143.45 Q1375.63 145.83 1372.40 147.22 Q1369.16 148.61 1365.47 148.61 Q1361.62 148.61 1358.23 147.22 Q1354.84 145.83 1352.30 143.45 Q1349.76 141.06 1348.30 137.75 Q1346.83 134.44 1346.83 130.59 Z M1399.50 118.58 L1435.84 118.58 L1435.84 235 L1399.50 235 Z M1448.93 194.19 Q1448.93 186.34 1451.32 178.79 Q1453.71 171.24 1458.33 165.24 Q1462.95 159.23 1469.88 155.54 Q1476.81 151.84 1485.89 151.84 Q1491.75 151.84 1497.60 154.07 Q1503.45 156.31 1506.99 160.46 L1507.30 160.46 L1507.30 118.58 L1542.72 118.58 L1542.72 235 L1510.84 235 L1510.84 226.53 L1510.53 226.53 Q1506.99 231.46 1500.22 234.31 Q1493.44 237.16 1485.89 237.16 Q1476.81 237.16 1469.88 233.46 Q1462.95 229.76 1458.33 223.68 Q1453.71 217.60 1451.32 209.90 Q1448.93 202.20 1448.93 194.19 Z M1481.89 194.19 Q1481.89 200.04 1485.28 203.97 Q1488.67 207.90 1495.13 207.90 Q1501.45 207.90 1505.22 203.89 Q1508.99 199.89 1508.99 194.19 Q1508.99 188.80 1505.22 184.80 Q1501.45 180.79 1495.13 180.79 Q1488.67 180.79 1485.28 184.80 Q1481.89 188.80 1481.89 194.19 Z M1612.94 183.72 Q1612.94 179.41 1609.79 176.63 Q1606.63 173.86 1601.24 173.86 Q1595.39 173.86 1592.15 177.10 Q1588.92 180.33 1588.46 183.72 Z M1643.59 195.27 Q1643.59 197.27 1643.51 199.35 Q1643.44 201.43 1643.28 202.81 L1588.77 202.81 Q1588.92 204.97 1590.23 206.66 Q1591.54 208.36 1593.46 209.59 Q1595.39 210.82 1597.78 211.44 Q1600.16 212.05 1602.63 212.05 Q1607.55 212.05 1610.86 210.28 Q1614.18 208.51 1615.87 206.36 L1641.13 219.14 Q1635.74 227.92 1625.50 233 Q1615.25 238.08 1601.70 238.08 Q1592.92 238.08 1584.61 235.31 Q1576.29 232.54 1569.90 227.07 Q1563.51 221.60 1559.66 213.44 Q1555.81 205.28 1555.81 194.50 Q1555.81 184.49 1559.35 176.40 Q1562.89 168.32 1568.98 162.70 Q1575.06 157.08 1583.30 154 Q1591.54 150.92 1600.93 150.92 Q1610.48 150.92 1618.33 154.23 Q1626.19 157.54 1631.81 163.47 Q1637.43 169.40 1640.51 177.56 Q1643.59 185.72 1643.59 195.27 Z M1656.06 154 L1690.25 154 L1690.25 163.24 L1690.56 163.24 Q1693.18 158.31 1698.34 155.07 Q1703.50 151.84 1710.43 151.84 Q1714.58 151.84 1717.20 152.61 L1714.43 182.79 Q1712.74 182.33 1710.66 182.10 Q1708.58 181.87 1706.88 181.87 Q1699.95 181.87 1695.80 185.87 Q1691.64 189.88 1691.64 195.73 L1691.64 235 L1656.06 235 Z"/>
</svg>
